<?xml version="1.0" encoding="utf-8"?>
<!-- Generator: Adobe Illustrator 19.1.0, SVG Export Plug-In . SVG Version: 6.00 Build 0)  -->
<svg version="1.1" id="Layer_1" xmlns="http://www.w3.org/2000/svg" xmlns:xlink="http://www.w3.org/1999/xlink" x="0px" y="0px"
	 viewBox="0 0 469.25 154.23" style="enable-background:new 0 0 469.25 154.23;" xml:space="preserve">
<style type="text/css">
	.st0{opacity:0.34;fill:#D69012;stroke:#1256A6;}
	.st1{opacity:0.2;fill:#006699;}
	.st2{fill:#131312;}
	.st3{fill:none;stroke:#000000;stroke-width:0.25;}
	.st4{fill:none;stroke:#006699;stroke-width:2;}
	.st5{fill:#131312;stroke:#131312;stroke-width:0.25;}
	.st6{fill:#19619C;stroke:#19619C;stroke-width:0.5;}
	.st7{fill:none;stroke:#231F20;stroke-width:0.25;}
	.st8{fill:#231F20;}
	.st9{fill:none;}
	.st10{fill:#2159A7;}
	.st11{fill:#2359A7;}
	.st12{fill:none;stroke:#222729;}
	.st13{fill:#29171B;}
</style>
<path class="st0" d="M241.35,48.9c-7.68,0-14.7,8.4-20.76,20.23l0.02-0.02c19.47,19.47,39.68,39.68,61.52,61.52l0.08-0.08
	c-6.07-26.95-21.34-81.71-40.96-81.71L241.35,48.9z"/>
<path class="st1" d="M135.04,94.18c-19.66,6.22-41.97,16.31-76.39,0.47l0.07,0.1V73.19l0.06-0.41
	c18.79-7.17,31.02-35.55,76.09-23.71l-0.01,0.55v44.71L135.04,94.18z"/>
<path class="st2" d="M33.4,112.54"/>
<line class="st2" x1="52.29" y1="112.6" x2="52.99" y2="112.6"/>
<g>
	<g>
		<line class="st3" x1="134.86" y1="112.6" x2="170.61" y2="112.6"/>
		<g>
			<path d="M169.27,112.6l-1.64-2.7l0.09-0.06l4.41,1.75c1.54,0.34,3.07,0.68,4.61,1.01c-1.54,0.34-3.07,0.68-4.61,1.01l-4.41,1.75
				l-0.09-0.05L169.27,112.6z"/>
		</g>
	</g>
</g>
<line class="st3" x1="58.72" y1="112.6" x2="134.86" y2="112.6"/>
<line class="st3" x1="33.34" y1="112.6" x2="58.72" y2="112.6"/>
<line class="st3" x1="2" y1="112.6" x2="33.4" y2="112.6"/>
<g>
	<path d="M171.86,121.06l1.9-2.22l-1.09-2.15h0.82l0.37,0.78c0.14,0.29,0.26,0.57,0.37,0.83l1.26-1.61h0.91l-1.83,2.21l1.1,2.16
		h-0.82l-0.44-0.89c-0.09-0.19-0.2-0.42-0.32-0.7l-1.3,1.59H171.86z"/>
</g>
<g>
	<path d="M34.92,118.09c0-0.71,0.07-1.29,0.22-1.72s0.36-0.77,0.65-1.01s0.65-0.35,1.09-0.35c0.32,0,0.61,0.06,0.85,0.2
		c0.24,0.13,0.45,0.32,0.6,0.56c0.16,0.25,0.28,0.54,0.37,0.9c0.09,0.35,0.14,0.83,0.14,1.42c0,0.71-0.07,1.28-0.22,1.71
		c-0.15,0.43-0.36,0.77-0.65,1.01c-0.29,0.24-0.65,0.36-1.1,0.36c-0.58,0-1.04-0.21-1.37-0.62
		C35.12,120.04,34.92,119.22,34.92,118.09z M35.68,118.09c0,0.99,0.12,1.65,0.35,1.98s0.52,0.49,0.86,0.49s0.63-0.16,0.86-0.49
		c0.23-0.33,0.35-0.99,0.35-1.97c0-0.99-0.12-1.65-0.35-1.98c-0.23-0.33-0.52-0.49-0.87-0.49c-0.34,0-0.61,0.14-0.81,0.43
		C35.81,116.42,35.68,117.1,35.68,118.09z"/>
</g>
<path class="st4" d="M134.87,49.05c5.64,1.48,11.79,3.59,18.53,6.45"/>
<path class="st4" d="M58.78,72.75c18.79-7.17,31.02-35.55,76.09-23.71"/>
<path class="st4" d="M42.23,73.01c6.4,2.03,11.69,1.59,16.55-0.26"/>
<g>
	<path d="M138.01,47.02l0.05-0.7c0.15,0.04,0.3,0.07,0.45,0.07c0.15,0,0.27-0.03,0.37-0.1c0.12-0.09,0.25-0.26,0.39-0.51l0.24-0.43
		l-0.73-4.38h0.73l0.33,2.21c0.07,0.44,0.12,0.87,0.17,1.31l1.95-3.52h0.78l-2.78,4.95c-0.27,0.48-0.51,0.8-0.72,0.96
		c-0.21,0.16-0.45,0.23-0.72,0.23C138.34,47.11,138.17,47.08,138.01,47.02z"/>
	<path d="M149.29,41.79h-3.98V41.1h3.98V41.79z M149.29,43.62h-3.98v-0.69h3.98V43.62z"/>
	<path d="M152.2,45.33l0.79-3.79h-0.67l0.12-0.58h0.67l0.13-0.62c0.07-0.31,0.13-0.53,0.2-0.67c0.07-0.14,0.18-0.25,0.34-0.34
		c0.16-0.09,0.37-0.13,0.64-0.13c0.19,0,0.46,0.04,0.82,0.12l-0.14,0.65c-0.25-0.07-0.46-0.1-0.63-0.1c-0.15,0-0.26,0.04-0.33,0.11
		c-0.08,0.07-0.14,0.24-0.2,0.52l-0.1,0.47h0.83l-0.12,0.58h-0.83l-0.79,3.79H152.2z"/>
	<path d="M156.12,47.11c-0.41-0.52-0.75-1.12-1.04-1.81c-0.28-0.69-0.42-1.41-0.42-2.15c0-0.65,0.11-1.28,0.32-1.88
		c0.25-0.69,0.63-1.38,1.14-2.07h0.53c-0.33,0.57-0.55,0.98-0.66,1.22c-0.17,0.38-0.3,0.77-0.39,1.18
		c-0.12,0.51-0.18,1.03-0.18,1.55c0,1.32,0.41,2.64,1.23,3.95H156.12z"/>
	<path d="M156.95,45.33l1.9-2.22l-1.09-2.15h0.82l0.37,0.78c0.14,0.29,0.26,0.57,0.37,0.83l1.26-1.61h0.91l-1.83,2.21l1.1,2.16
		h-0.82l-0.44-0.89c-0.09-0.19-0.2-0.42-0.32-0.7l-1.3,1.59H156.95z"/>
	<path d="M162.21,47.11h-0.53c0.82-1.32,1.23-2.63,1.23-3.95c0-0.52-0.06-1.03-0.18-1.53c-0.09-0.41-0.22-0.81-0.39-1.18
		c-0.11-0.25-0.33-0.66-0.66-1.23h0.53c0.52,0.69,0.9,1.38,1.14,2.07c0.21,0.6,0.32,1.22,0.32,1.88c0,0.74-0.14,1.46-0.43,2.15
		C162.96,45.99,162.61,46.59,162.21,47.11z"/>
</g>
<g>
	<path d="M25.38,24.59l0.05-0.7c0.15,0.04,0.3,0.07,0.45,0.07c0.15,0,0.27-0.03,0.37-0.1c0.12-0.09,0.25-0.26,0.39-0.51l0.24-0.43
		l-0.73-4.38h0.73l0.33,2.21c0.07,0.44,0.12,0.87,0.17,1.31l1.95-3.52h0.78l-2.78,4.95c-0.27,0.48-0.51,0.8-0.72,0.96
		c-0.21,0.16-0.45,0.23-0.72,0.23C25.72,24.68,25.55,24.65,25.38,24.59z"/>
</g>
<line class="st5" x1="58.72" y1="94.71" x2="58.72" y2="73.16"/>
<line class="st5" x1="58.72" y1="112.78" x2="58.72" y2="94.71"/>
<g>
	<g>
		<line class="st3" x1="33.58" y1="144.35" x2="33.58" y2="24.16"/>
		<g>
			<path d="M33.58,25.51l-2.7,1.64l-0.06-0.09l1.75-4.41c0.34-1.54,0.68-3.07,1.01-4.61c0.34,1.54,0.68,3.07,1.01,4.61l1.75,4.41
				l-0.05,0.09L33.58,25.51z"/>
		</g>
	</g>
</g>
<g>
	<path d="M132.74,121.06l1.26-6.03h0.74l-0.45,2.15c0.24-0.22,0.45-0.37,0.64-0.46s0.39-0.13,0.6-0.13c0.41,0,0.75,0.15,1.02,0.46
		s0.41,0.75,0.41,1.33c0,0.39-0.05,0.74-0.16,1.06c-0.11,0.32-0.25,0.59-0.41,0.81c-0.16,0.22-0.33,0.39-0.5,0.52
		c-0.17,0.13-0.35,0.23-0.53,0.29c-0.18,0.06-0.35,0.1-0.52,0.1c-0.29,0-0.54-0.08-0.76-0.23c-0.22-0.15-0.39-0.38-0.51-0.7
		l-0.17,0.83H132.74z M133.84,119.27l0,0.14c0,0.37,0.09,0.66,0.27,0.85s0.4,0.29,0.67,0.29c0.26,0,0.5-0.09,0.72-0.27
		c0.22-0.18,0.4-0.47,0.54-0.85c0.14-0.39,0.21-0.74,0.21-1.07c0-0.37-0.09-0.65-0.27-0.85c-0.18-0.2-0.4-0.3-0.66-0.3
		c-0.27,0-0.52,0.1-0.74,0.31c-0.22,0.21-0.41,0.53-0.56,0.96C133.9,118.79,133.84,119.06,133.84,119.27z"/>
</g>
<g>
	<path d="M59.37,120.52c-0.26,0.22-0.51,0.38-0.74,0.49c-0.24,0.1-0.49,0.15-0.77,0.15c-0.4,0-0.73-0.12-0.97-0.36
		c-0.25-0.24-0.37-0.54-0.37-0.91c0-0.24,0.06-0.46,0.17-0.65c0.11-0.19,0.26-0.34,0.44-0.45s0.41-0.2,0.67-0.24
		c0.17-0.03,0.48-0.06,0.95-0.08s0.8-0.07,1.01-0.15c0.06-0.2,0.09-0.37,0.09-0.51c0-0.17-0.06-0.31-0.19-0.41
		c-0.17-0.14-0.43-0.21-0.76-0.21c-0.31,0-0.57,0.07-0.77,0.21c-0.2,0.14-0.34,0.33-0.43,0.59l-0.75-0.07
		c0.15-0.43,0.4-0.76,0.73-0.99c0.33-0.23,0.75-0.35,1.26-0.35c0.54,0,0.97,0.13,1.28,0.39c0.24,0.19,0.36,0.44,0.36,0.75
		c0,0.23-0.03,0.5-0.1,0.81l-0.24,1.09c-0.08,0.35-0.12,0.63-0.12,0.84c0,0.14,0.03,0.33,0.09,0.59h-0.75
		C59.41,120.92,59.38,120.74,59.37,120.52z M59.64,118.85c-0.1,0.04-0.22,0.07-0.33,0.09c-0.12,0.02-0.32,0.05-0.6,0.07
		c-0.43,0.04-0.74,0.09-0.92,0.15c-0.18,0.06-0.31,0.15-0.4,0.28c-0.09,0.13-0.14,0.27-0.14,0.43c0,0.21,0.07,0.38,0.22,0.51
		c0.14,0.13,0.35,0.2,0.61,0.2c0.25,0,0.48-0.06,0.71-0.2c0.23-0.13,0.41-0.31,0.54-0.54C59.47,119.61,59.57,119.28,59.64,118.85z"
		/>
</g>
<line class="st5" x1="134.86" y1="94.3" x2="134.86" y2="49.59"/>
<line class="st5" x1="134.86" y1="112.78" x2="134.86" y2="94.3"/>
<circle class="st6" cx="58.79" cy="72.78" r="0.75"/>
<circle class="st6" cx="134.86" cy="49.1" r="0.75"/>
<path class="st4" d="M58.65,94.62c-5.06-2.33-10.39-5.22-16.01-8.77"/>
<path class="st4" d="M135.04,94.14c-19.66,6.22-41.97,16.31-76.39,0.47"/>
<path class="st4" d="M154.04,90.32c-6.27,0.13-12.49,1.76-18.99,3.82"/>
<path class="st6" d="M58.6,93.96c0.42,0,0.75,0.34,0.75,0.75c0,0.42-0.34,0.75-0.75,0.75c-0.42,0-0.75-0.34-0.75-0.75
	C57.85,94.3,58.19,93.96,58.6,93.96"/>
<path class="st6" d="M134.34,94.3c0-0.42,0.34-0.75,0.75-0.75c0.42,0,0.75,0.34,0.75,0.75c0,0.42-0.34,0.75-0.75,0.75
	C134.67,95.05,134.34,94.72,134.34,94.3"/>
<g>
	<path d="M138.01,87.72l0.05-0.7c0.15,0.04,0.3,0.07,0.45,0.07c0.15,0,0.27-0.03,0.37-0.1c0.12-0.09,0.25-0.26,0.39-0.51l0.24-0.43
		l-0.73-4.38h0.73l0.33,2.21c0.07,0.44,0.12,0.87,0.17,1.31l1.95-3.52h0.78l-2.78,4.95c-0.27,0.48-0.51,0.8-0.72,0.96
		c-0.21,0.16-0.45,0.23-0.72,0.23C138.34,87.8,138.17,87.78,138.01,87.72z"/>
	<path d="M149.29,82.49h-3.98V81.8h3.98V82.49z M149.29,84.32h-3.98v-0.69h3.98V84.32z"/>
	<path d="M152.05,86.43l0.75,0.07c-0.01,0.17,0.02,0.3,0.06,0.38c0.05,0.08,0.12,0.15,0.22,0.2c0.13,0.06,0.31,0.09,0.52,0.09
		c0.45,0,0.77-0.12,0.97-0.35c0.13-0.16,0.25-0.5,0.36-1.02l0.07-0.35c-0.39,0.39-0.8,0.59-1.23,0.59c-0.44,0-0.81-0.16-1.11-0.49
		s-0.45-0.78-0.45-1.38c0-0.49,0.12-0.94,0.35-1.35s0.51-0.72,0.84-0.93c0.32-0.21,0.66-0.31,1-0.31c0.57,0,1.01,0.27,1.32,0.81
		l0.15-0.72h0.68l-0.88,4.21c-0.1,0.46-0.22,0.82-0.38,1.08c-0.16,0.26-0.37,0.46-0.65,0.6c-0.28,0.14-0.6,0.21-0.96,0.21
		c-0.35,0-0.65-0.05-0.91-0.14c-0.25-0.09-0.44-0.22-0.57-0.4c-0.12-0.17-0.19-0.37-0.19-0.6
		C152.03,86.58,152.04,86.51,152.05,86.43z M152.98,84.1c0,0.3,0.03,0.52,0.09,0.67c0.08,0.21,0.2,0.37,0.35,0.48
		c0.15,0.11,0.32,0.17,0.51,0.17c0.24,0,0.49-0.09,0.73-0.26c0.24-0.17,0.44-0.44,0.59-0.8c0.15-0.36,0.22-0.7,0.22-1.03
		c0-0.36-0.1-0.65-0.3-0.86s-0.44-0.32-0.74-0.32c-0.18,0-0.36,0.05-0.53,0.15c-0.17,0.1-0.33,0.25-0.48,0.44s-0.26,0.44-0.33,0.71
		S152.98,83.96,152.98,84.1z"/>
	<path d="M158.47,87.8c-0.41-0.52-0.75-1.12-1.04-1.81c-0.28-0.69-0.42-1.41-0.42-2.15c0-0.65,0.11-1.28,0.32-1.88
		c0.25-0.69,0.63-1.38,1.14-2.07H159c-0.33,0.57-0.55,0.98-0.66,1.22c-0.17,0.38-0.3,0.77-0.39,1.18c-0.12,0.51-0.18,1.03-0.18,1.55
		c0,1.32,0.41,2.64,1.23,3.95H158.47z"/>
	<path d="M159.29,86.03l1.9-2.22l-1.09-2.15h0.82l0.37,0.78c0.14,0.29,0.26,0.57,0.37,0.83l1.26-1.61h0.91l-1.83,2.21l1.1,2.16
		h-0.82l-0.44-0.89c-0.09-0.19-0.2-0.42-0.32-0.7l-1.3,1.59H159.29z"/>
	<path d="M164.55,87.8h-0.53c0.82-1.32,1.23-2.63,1.23-3.95c0-0.52-0.06-1.03-0.18-1.53c-0.09-0.41-0.22-0.81-0.39-1.18
		c-0.11-0.25-0.33-0.66-0.66-1.23h0.53c0.52,0.69,0.9,1.38,1.14,2.07c0.21,0.6,0.32,1.22,0.32,1.88c0,0.74-0.14,1.46-0.43,2.15
		C165.3,86.69,164.96,87.29,164.55,87.8z"/>
</g>
<path class="st1" d="M428.83,110.69V54.72l0.01-0.49c-39.92-10.49-50.76,14.64-67.4,21l-0.05,0.36v35.09v-0.16h67.44V110.69z"/>
<path class="st2" d="M339.04,110.42"/>
<line class="st2" x1="355.77" y1="110.47" x2="356.39" y2="110.47"/>
<g>
	<g>
		<line class="st3" x1="428.91" y1="110.47" x2="459.89" y2="110.47"/>
		<g>
			<path d="M458.54,110.47l-1.64-2.7l0.09-0.06l4.41,1.75c1.54,0.34,3.07,0.68,4.61,1.01c-1.54,0.34-3.07,0.68-4.61,1.01l-4.41,1.75
				l-0.09-0.05L458.54,110.47z"/>
		</g>
	</g>
</g>
<line class="st3" x1="361.47" y1="110.47" x2="428.91" y2="110.47"/>
<line class="st3" x1="338.99" y1="110.47" x2="361.47" y2="110.47"/>
<line class="st3" x1="311.22" y1="110.47" x2="339.04" y2="110.47"/>
<g>
	<path d="M461.95,118.1l1.68-1.96l-0.96-1.91h0.73l0.33,0.69c0.12,0.26,0.23,0.5,0.33,0.74l1.11-1.43h0.8l-1.62,1.96l0.98,1.91
		h-0.73l-0.39-0.79c-0.08-0.17-0.18-0.38-0.28-0.62l-1.15,1.41H461.95z"/>
</g>
<g>
	<path d="M340.38,115.47c0-0.63,0.07-1.14,0.2-1.52c0.13-0.38,0.32-0.68,0.58-0.89c0.26-0.21,0.58-0.31,0.97-0.31
		c0.29,0,0.54,0.06,0.75,0.17c0.22,0.12,0.39,0.28,0.54,0.5c0.14,0.22,0.25,0.48,0.33,0.79c0.08,0.31,0.12,0.73,0.12,1.26
		c0,0.63-0.06,1.13-0.19,1.52s-0.32,0.68-0.58,0.89c-0.26,0.21-0.58,0.31-0.97,0.31c-0.51,0-0.92-0.18-1.21-0.55
		C340.56,117.2,340.38,116.47,340.38,115.47z M341.06,115.47c0,0.88,0.1,1.46,0.31,1.75s0.46,0.44,0.76,0.44
		c0.3,0,0.55-0.15,0.76-0.44c0.21-0.29,0.31-0.87,0.31-1.75c0-0.88-0.1-1.46-0.31-1.75c-0.21-0.29-0.46-0.43-0.77-0.43
		c-0.3,0-0.54,0.13-0.72,0.38C341.17,113.99,341.06,114.6,341.06,115.47z"/>
</g>
<path class="st4" d="M428.92,54.17c4.99,1.31,10.44,3.18,16.41,5.72"/>
<path class="st4" d="M361.52,75.17c16.65-6.36,27.48-31.49,67.4-21"/>
<path class="st4" d="M346.86,75.4c5.67,1.8,10.36,1.41,14.66-0.23"/>
<g>
	<path d="M422.59,49.89l0.04-0.62c0.14,0.04,0.27,0.06,0.4,0.06c0.13,0,0.24-0.03,0.32-0.09c0.11-0.08,0.22-0.23,0.35-0.45
		l0.21-0.38l-0.64-3.88h0.65l0.29,1.96c0.06,0.39,0.11,0.77,0.15,1.16l1.73-3.11h0.69l-2.47,4.38c-0.24,0.43-0.45,0.71-0.63,0.85
		c-0.18,0.14-0.4,0.21-0.64,0.21C422.88,49.96,422.73,49.94,422.59,49.89z"/>
	<path d="M432.58,45.25h-3.53v-0.61h3.53V45.25z M432.58,46.87h-3.53v-0.61h3.53V46.87z"/>
	<path d="M435.16,48.39l0.7-3.36h-0.59l0.11-0.51h0.59l0.11-0.55c0.06-0.27,0.12-0.47,0.18-0.59c0.06-0.12,0.16-0.22,0.3-0.3
		s0.33-0.12,0.57-0.12c0.17,0,0.41,0.04,0.73,0.11l-0.12,0.58c-0.22-0.06-0.41-0.09-0.56-0.09c-0.13,0-0.23,0.03-0.29,0.1
		c-0.07,0.06-0.12,0.22-0.17,0.46l-0.09,0.42h0.74l-0.11,0.51h-0.74l-0.7,3.36H435.16z"/>
	<path d="M438.63,49.96c-0.36-0.46-0.67-0.99-0.92-1.6c-0.25-0.61-0.38-1.25-0.38-1.9c0-0.58,0.09-1.13,0.28-1.66
		c0.22-0.61,0.56-1.23,1.01-1.84h0.47c-0.29,0.51-0.49,0.87-0.58,1.08c-0.15,0.33-0.26,0.68-0.35,1.05
		c-0.1,0.45-0.16,0.91-0.16,1.37c0,1.17,0.36,2.33,1.09,3.5H438.63z"/>
	<path d="M439.36,48.39l1.68-1.96l-0.96-1.91h0.73l0.33,0.69c0.12,0.26,0.23,0.5,0.33,0.74l1.11-1.43h0.8l-1.62,1.96l0.98,1.91
		h-0.73l-0.39-0.79c-0.08-0.17-0.18-0.38-0.28-0.62l-1.15,1.41H439.36z"/>
	<path d="M444.03,49.96h-0.47c0.73-1.17,1.09-2.33,1.09-3.5c0-0.46-0.05-0.91-0.16-1.36c-0.08-0.36-0.2-0.71-0.35-1.05
		c-0.09-0.22-0.29-0.58-0.59-1.09h0.47c0.46,0.61,0.79,1.22,1.01,1.84c0.19,0.53,0.28,1.08,0.28,1.66c0,0.66-0.13,1.29-0.38,1.9
		C444.69,48.97,444.39,49.51,444.03,49.96z"/>
</g>
<g>
	<path d="M331.72,32.4l0.04-0.62c0.14,0.04,0.27,0.06,0.4,0.06c0.13,0,0.24-0.03,0.32-0.09c0.11-0.08,0.22-0.23,0.35-0.45l0.21-0.38
		l-0.64-3.88h0.65l0.29,1.96c0.06,0.39,0.11,0.77,0.15,1.16l1.73-3.11h0.69l-2.47,4.38c-0.24,0.43-0.45,0.71-0.63,0.85
		c-0.18,0.14-0.4,0.21-0.64,0.21C332.02,32.48,331.87,32.46,331.72,32.4z"/>
</g>
<line class="st5" x1="361.47" y1="110.62" x2="361.47" y2="75.53"/>
<g>
	<g>
		<line class="st3" x1="339.19" y1="138.6" x2="339.19" y2="32.82"/>
		<g>
			<path d="M339.19,34.17l-2.7,1.64l-0.06-0.09l1.75-4.41c0.34-1.54,0.68-3.07,1.01-4.61c0.34,1.54,0.68,3.07,1.01,4.61l1.75,4.41
				l-0.05,0.09L339.19,34.17z"/>
		</g>
	</g>
</g>
<g>
	<path d="M427.04,118.1l1.11-5.34h0.66l-0.4,1.91c0.21-0.19,0.4-0.33,0.57-0.41c0.17-0.08,0.35-0.12,0.53-0.12
		c0.36,0,0.66,0.13,0.9,0.4c0.24,0.27,0.36,0.66,0.36,1.18c0,0.34-0.05,0.66-0.15,0.94c-0.1,0.28-0.22,0.52-0.36,0.72
		c-0.14,0.19-0.29,0.35-0.44,0.46c-0.15,0.12-0.31,0.2-0.47,0.26s-0.31,0.09-0.46,0.09c-0.25,0-0.48-0.07-0.67-0.2
		s-0.35-0.34-0.46-0.62l-0.15,0.73H427.04z M428.01,116.52l0,0.12c0,0.33,0.08,0.58,0.24,0.75c0.16,0.17,0.35,0.26,0.59,0.26
		c0.23,0,0.44-0.08,0.64-0.24c0.19-0.16,0.35-0.41,0.48-0.76c0.12-0.34,0.19-0.66,0.19-0.95c0-0.33-0.08-0.58-0.24-0.76
		c-0.16-0.18-0.35-0.27-0.58-0.27c-0.24,0-0.46,0.09-0.66,0.28c-0.2,0.18-0.37,0.47-0.5,0.85
		C428.06,116.09,428.01,116.33,428.01,116.52z"/>
</g>
<g>
	<path d="M362.04,117.62c-0.23,0.2-0.45,0.34-0.66,0.43c-0.21,0.09-0.44,0.14-0.68,0.14c-0.36,0-0.64-0.1-0.86-0.31
		c-0.22-0.21-0.33-0.48-0.33-0.81c0-0.22,0.05-0.41,0.15-0.57c0.1-0.17,0.23-0.3,0.39-0.4c0.16-0.1,0.36-0.17,0.6-0.22
		c0.15-0.03,0.43-0.05,0.84-0.07s0.71-0.06,0.89-0.13c0.05-0.18,0.08-0.33,0.08-0.45c0-0.15-0.06-0.27-0.17-0.36
		c-0.15-0.12-0.38-0.18-0.67-0.18c-0.28,0-0.5,0.06-0.68,0.18c-0.18,0.12-0.3,0.3-0.38,0.52l-0.67-0.06
		c0.14-0.38,0.35-0.68,0.65-0.88c0.29-0.2,0.67-0.31,1.12-0.31c0.48,0,0.86,0.11,1.14,0.34c0.21,0.17,0.32,0.39,0.32,0.66
		c0,0.21-0.03,0.45-0.09,0.72l-0.21,0.96c-0.07,0.31-0.1,0.55-0.1,0.75c0,0.12,0.03,0.3,0.08,0.52h-0.67
		C362.08,117.98,362.05,117.82,362.04,117.62z M362.28,116.15c-0.09,0.04-0.19,0.06-0.3,0.08c-0.11,0.02-0.28,0.04-0.53,0.06
		c-0.38,0.03-0.65,0.08-0.81,0.13c-0.16,0.05-0.28,0.14-0.36,0.25s-0.12,0.24-0.12,0.38c0,0.18,0.06,0.34,0.19,0.46
		c0.13,0.12,0.31,0.18,0.54,0.18c0.22,0,0.43-0.06,0.63-0.17c0.2-0.12,0.36-0.28,0.48-0.48S362.22,116.53,362.28,116.15z"/>
</g>
<line class="st5" x1="428.91" y1="110.62" x2="428.91" y2="54.65"/>
<circle class="st6" cx="361.53" cy="75.19" r="0.67"/>
<circle class="st6" cx="428.91" cy="54.22" r="0.67"/>
<g>
	<g>
		<line class="st7" x1="220.79" y1="13.43" x2="220.79" y2="130.33"/>
		<g>
			<path class="st8" d="M220.79,14.77l2.7,1.64l0.06-0.09l-1.75-4.41c-0.34-1.54-0.68-3.07-1.01-4.61
				c-0.34,1.54-0.68,3.07-1.01,4.61l-1.75,4.41l0.05,0.09L220.79,14.77z"/>
		</g>
	</g>
</g>
<g>
	<path class="st8" d="M298.9,75.04l1.54-1.8l-0.88-1.75h0.67l0.3,0.63c0.11,0.24,0.21,0.46,0.3,0.68l1.02-1.31h0.74l-1.49,1.79
		l0.89,1.75h-0.67l-0.35-0.72c-0.08-0.15-0.16-0.34-0.26-0.57l-1.05,1.29H298.9z"/>
</g>
<g>
	<path class="st8" d="M214.81,12.81l0.04-0.57c0.12,0.04,0.25,0.05,0.36,0.05c0.12,0,0.22-0.03,0.3-0.08
		c0.1-0.07,0.2-0.21,0.32-0.41l0.19-0.35l-0.59-3.55h0.59l0.27,1.79c0.05,0.35,0.1,0.71,0.14,1.06l1.58-2.85h0.63l-2.26,4.01
		c-0.22,0.39-0.41,0.65-0.58,0.78c-0.17,0.13-0.36,0.19-0.58,0.19C215.08,12.88,214.94,12.86,214.81,12.81z"/>
</g>
<g>
	<path class="st8" d="M213.67,72.67c0-0.58,0.06-1.04,0.18-1.4c0.12-0.35,0.3-0.62,0.53-0.82s0.53-0.29,0.89-0.29
		c0.26,0,0.49,0.05,0.69,0.16c0.2,0.11,0.36,0.26,0.49,0.46s0.23,0.44,0.3,0.73c0.07,0.29,0.11,0.67,0.11,1.16
		c0,0.57-0.06,1.04-0.18,1.39c-0.12,0.35-0.29,0.63-0.53,0.82s-0.53,0.29-0.89,0.29c-0.47,0-0.84-0.17-1.11-0.51
		C213.83,74.25,213.67,73.59,213.67,72.67z M214.29,72.67c0,0.8,0.09,1.34,0.28,1.6c0.19,0.27,0.42,0.4,0.7,0.4s0.51-0.13,0.7-0.4
		c0.19-0.27,0.28-0.8,0.28-1.6c0-0.81-0.09-1.34-0.28-1.6c-0.19-0.27-0.42-0.4-0.7-0.4c-0.28,0-0.5,0.12-0.66,0.35
		C214.39,71.32,214.29,71.87,214.29,72.67z"/>
</g>
<g>
	<path class="st4" d="M282.25,130.59c1.33,5.9,2.22,10.47,2.61,12.83"/>
	<path class="st4" d="M241.29,48.89c19.62,0,34.89,54.76,40.96,81.71"/>
	<path class="st4" d="M220.63,69.17c-12.8,25.01-21.32,65.37-22.81,74.31"/>
	<path class="st4" d="M241.39,48.93c-7.68,0-14.7,8.4-20.76,20.23"/>
</g>
<path class="st4" d="M282.17,130.67c4.43,4.43,8.63,8.63,12.47,12.47"/>
<path class="st4" d="M220.65,69.15c17,17,41.58,41.58,61.52,61.52"/>
<path class="st4" d="M200.29,48.79c0,0,8.26,8.26,20.36,20.36"/>
<g>
	<path class="st8" d="M261.06,74.39v0.58h-3.23c0-0.14,0.02-0.28,0.07-0.42c0.08-0.22,0.21-0.44,0.4-0.65s0.44-0.46,0.79-0.74
		c0.53-0.44,0.89-0.78,1.08-1.04s0.28-0.5,0.28-0.72c0-0.24-0.08-0.44-0.26-0.6c-0.17-0.16-0.39-0.25-0.67-0.25
		c-0.29,0-0.52,0.09-0.69,0.26c-0.17,0.17-0.26,0.41-0.26,0.72l-0.62-0.06c0.04-0.46,0.2-0.81,0.48-1.05
		c0.28-0.24,0.65-0.36,1.11-0.36c0.47,0,0.84,0.13,1.11,0.39c0.27,0.26,0.41,0.58,0.41,0.97c0,0.2-0.04,0.39-0.12,0.58
		s-0.21,0.39-0.4,0.6c-0.19,0.21-0.49,0.5-0.93,0.86c-0.36,0.3-0.59,0.51-0.69,0.62c-0.1,0.11-0.19,0.22-0.25,0.33H261.06z"/>
</g>
<g>
	<path class="st8" d="M241.94,74.97h-0.6v-3.83c-0.14,0.14-0.33,0.28-0.57,0.41c-0.23,0.14-0.45,0.24-0.63,0.31v-0.58
		c0.34-0.16,0.63-0.35,0.88-0.57c0.25-0.23,0.43-0.44,0.53-0.65h0.39V74.97z"/>
</g>
<g>
	<path class="st8" d="M280.4,73.68l0.6-0.08c0.07,0.34,0.19,0.59,0.35,0.74c0.17,0.15,0.37,0.23,0.61,0.23
		c0.28,0,0.52-0.1,0.72-0.29c0.19-0.2,0.29-0.44,0.29-0.73c0-0.28-0.09-0.5-0.27-0.68c-0.18-0.18-0.41-0.27-0.69-0.27
		c-0.11,0-0.25,0.02-0.42,0.07l0.07-0.53c0.04,0,0.07,0.01,0.1,0.01c0.26,0,0.49-0.07,0.69-0.2c0.2-0.13,0.31-0.34,0.31-0.62
		c0-0.22-0.07-0.4-0.22-0.55s-0.34-0.22-0.58-0.22c-0.23,0-0.43,0.07-0.58,0.22c-0.16,0.15-0.26,0.37-0.3,0.66l-0.6-0.11
		c0.07-0.4,0.24-0.71,0.5-0.94c0.26-0.22,0.58-0.33,0.97-0.33c0.27,0,0.51,0.06,0.74,0.17c0.22,0.11,0.4,0.27,0.51,0.47
		c0.12,0.2,0.18,0.41,0.18,0.63c0,0.21-0.06,0.4-0.17,0.58c-0.11,0.17-0.28,0.31-0.5,0.41c0.29,0.07,0.51,0.21,0.67,0.42
		c0.16,0.21,0.24,0.47,0.24,0.79c0,0.43-0.16,0.79-0.47,1.09c-0.31,0.3-0.71,0.45-1.18,0.45c-0.43,0-0.79-0.13-1.07-0.38
		C280.6,74.42,280.44,74.09,280.4,73.68z"/>
</g>
<path class="st9" d="M231.04,109.83c0,0,0.14,20.79,0,20.93"/>
<circle class="st10" cx="282.3" cy="130.67" r="0.85"/>
<circle class="st11" cx="220.65" cy="69.15" r="0.85"/>
<g>
</g>
<path class="st12" d="M237.92,42.7"/>
<g>
	<path class="st8" d="M237.78,46.77l0.04-0.57c0.12,0.04,0.25,0.05,0.36,0.05c0.12,0,0.22-0.03,0.3-0.08
		c0.1-0.07,0.2-0.21,0.32-0.41l0.19-0.35l-0.59-3.55h0.59l0.27,1.79c0.05,0.35,0.1,0.71,0.14,1.06l1.58-2.85h0.63l-2.26,4.01
		c-0.22,0.39-0.41,0.65-0.58,0.78c-0.17,0.13-0.36,0.19-0.58,0.19C238.05,46.84,237.91,46.82,237.78,46.77z"/>
	<path class="st8" d="M246.7,42.53h-3.23v-0.56h3.23V42.53z M246.7,44.01h-3.23v-0.56h3.23V44.01z"/>
	<path class="st8" d="M252.42,44.83v0.58h-3.23c0-0.14,0.02-0.28,0.07-0.42c0.08-0.22,0.21-0.44,0.4-0.65s0.44-0.46,0.79-0.74
		c0.53-0.44,0.89-0.78,1.08-1.04s0.28-0.5,0.28-0.72c0-0.24-0.08-0.44-0.26-0.6c-0.17-0.16-0.39-0.25-0.67-0.25
		c-0.29,0-0.52,0.09-0.69,0.26c-0.17,0.17-0.26,0.41-0.26,0.72l-0.62-0.06c0.04-0.46,0.2-0.81,0.48-1.05
		c0.28-0.24,0.65-0.36,1.11-0.36c0.47,0,0.84,0.13,1.11,0.39c0.27,0.26,0.41,0.58,0.41,0.97c0,0.2-0.04,0.39-0.12,0.58
		s-0.21,0.39-0.4,0.6c-0.19,0.21-0.49,0.5-0.93,0.86c-0.36,0.3-0.59,0.51-0.69,0.62c-0.1,0.11-0.19,0.22-0.25,0.33H252.42z"/>
	<path class="st8" d="M252.77,45.4l1.54-1.8l-0.88-1.75h0.67l0.3,0.63c0.11,0.24,0.21,0.46,0.3,0.68l1.02-1.31h0.74l-1.49,1.79
		l0.89,1.75h-0.67l-0.35-0.72c-0.08-0.15-0.16-0.34-0.26-0.57l-1.05,1.29H252.77z"/>
	<path class="st8" d="M258.32,43.94v-0.6h1.85v0.6H258.32z"/>
	<path class="st8" d="M262.26,45.4l1.54-1.8l-0.88-1.75h0.67l0.3,0.63c0.11,0.24,0.21,0.46,0.3,0.68l1.02-1.31h0.74l-1.49,1.79
		l0.89,1.75h-0.67l-0.35-0.72c-0.08-0.15-0.16-0.34-0.26-0.57l-1.05,1.29H262.26z"/>
</g>
<g>
	<path class="st8" d="M268.5,42.41v0.34h-1.89c0-0.08,0.01-0.17,0.04-0.24c0.05-0.13,0.12-0.26,0.23-0.38
		c0.11-0.12,0.26-0.27,0.46-0.43c0.31-0.25,0.52-0.46,0.63-0.6c0.11-0.15,0.16-0.29,0.16-0.42c0-0.14-0.05-0.26-0.15-0.35
		c-0.1-0.1-0.23-0.14-0.39-0.14c-0.17,0-0.3,0.05-0.4,0.15c-0.1,0.1-0.15,0.24-0.15,0.42l-0.36-0.04c0.03-0.27,0.12-0.47,0.28-0.61
		c0.16-0.14,0.38-0.21,0.65-0.21c0.27,0,0.49,0.08,0.65,0.23c0.16,0.15,0.24,0.34,0.24,0.56c0,0.11-0.02,0.23-0.07,0.34
		c-0.05,0.11-0.12,0.23-0.23,0.35c-0.11,0.12-0.29,0.29-0.54,0.5c-0.21,0.18-0.34,0.3-0.41,0.36c-0.06,0.06-0.11,0.13-0.15,0.19
		H268.5z"/>
</g>
<g>
	<path class="st8" d="M286.55,130.75c-0.33-0.42-0.61-0.91-0.84-1.47c-0.23-0.56-0.34-1.14-0.34-1.74c0-0.53,0.08-1.04,0.26-1.52
		c0.2-0.56,0.51-1.12,0.93-1.68h0.43c-0.27,0.46-0.45,0.79-0.53,0.99c-0.14,0.31-0.24,0.63-0.32,0.96c-0.1,0.42-0.14,0.83-0.14,1.25
		c0,1.07,0.33,2.14,1,3.21H286.55z"/>
	<path class="st8" d="M287.51,128.02l0.6-0.08c0.07,0.34,0.19,0.59,0.35,0.74c0.17,0.15,0.37,0.23,0.61,0.23
		c0.28,0,0.52-0.1,0.72-0.29c0.19-0.2,0.29-0.44,0.29-0.73c0-0.28-0.09-0.5-0.27-0.68c-0.18-0.18-0.41-0.27-0.69-0.27
		c-0.11,0-0.25,0.02-0.42,0.07l0.07-0.53c0.04,0,0.07,0.01,0.1,0.01c0.26,0,0.49-0.07,0.69-0.2c0.2-0.13,0.31-0.34,0.31-0.62
		c0-0.22-0.07-0.4-0.22-0.55s-0.34-0.22-0.58-0.22c-0.23,0-0.43,0.07-0.58,0.22c-0.16,0.15-0.26,0.37-0.3,0.66l-0.6-0.11
		c0.07-0.4,0.24-0.71,0.5-0.94c0.26-0.22,0.58-0.33,0.97-0.33c0.27,0,0.51,0.06,0.74,0.17c0.22,0.11,0.4,0.27,0.51,0.47
		c0.12,0.2,0.18,0.41,0.18,0.63c0,0.21-0.06,0.4-0.17,0.58c-0.11,0.17-0.28,0.31-0.5,0.41c0.29,0.07,0.51,0.21,0.67,0.42
		c0.16,0.21,0.24,0.47,0.24,0.79c0,0.43-0.16,0.79-0.47,1.09c-0.31,0.3-0.71,0.45-1.18,0.45c-0.43,0-0.79-0.13-1.07-0.38
		C287.72,128.76,287.55,128.43,287.51,128.02z"/>
	<path class="st8" d="M291.64,129.31v-0.68h0.68v0.68c0,0.25-0.04,0.45-0.13,0.61c-0.09,0.15-0.23,0.27-0.42,0.36l-0.17-0.26
		c0.13-0.06,0.22-0.14,0.28-0.25c0.06-0.11,0.09-0.26,0.1-0.47H291.64z"/>
	<path class="st8" d="M295.04,127.84v-0.6h1.85v0.6H295.04z"/>
	<path class="st8" d="M297.39,128.02l0.6-0.08c0.07,0.34,0.19,0.59,0.35,0.74c0.17,0.15,0.37,0.23,0.61,0.23
		c0.28,0,0.52-0.1,0.72-0.29c0.19-0.2,0.29-0.44,0.29-0.73c0-0.28-0.09-0.5-0.27-0.68c-0.18-0.18-0.41-0.27-0.69-0.27
		c-0.11,0-0.25,0.02-0.42,0.07l0.07-0.53c0.04,0,0.07,0.01,0.1,0.01c0.26,0,0.49-0.07,0.69-0.2c0.2-0.13,0.31-0.34,0.31-0.62
		c0-0.22-0.07-0.4-0.22-0.55s-0.34-0.22-0.58-0.22c-0.23,0-0.43,0.07-0.58,0.22c-0.16,0.15-0.26,0.37-0.3,0.66l-0.6-0.11
		c0.07-0.4,0.24-0.71,0.5-0.94c0.26-0.22,0.58-0.33,0.97-0.33c0.27,0,0.51,0.06,0.74,0.17c0.22,0.11,0.4,0.27,0.51,0.47
		c0.12,0.2,0.18,0.41,0.18,0.63c0,0.21-0.06,0.4-0.17,0.58c-0.11,0.17-0.28,0.31-0.5,0.41c0.29,0.07,0.51,0.21,0.67,0.42
		c0.16,0.21,0.24,0.47,0.24,0.79c0,0.43-0.16,0.79-0.47,1.09c-0.31,0.3-0.71,0.45-1.18,0.45c-0.43,0-0.79-0.13-1.07-0.38
		C297.59,128.76,297.43,128.43,297.39,128.02z"/>
	<path class="st8" d="M301.75,130.75h-0.43c0.67-1.07,1-2.14,1-3.21c0-0.42-0.05-0.83-0.14-1.24c-0.08-0.33-0.18-0.65-0.32-0.96
		c-0.09-0.2-0.27-0.53-0.54-1h0.43c0.42,0.56,0.73,1.12,0.93,1.68c0.17,0.48,0.26,0.99,0.26,1.52c0,0.6-0.12,1.18-0.35,1.74
		C302.35,129.84,302.08,130.33,301.75,130.75z"/>
</g>
<g>
	<path class="st8" d="M237.3,121.15l1.54-1.8l-0.88-1.75h0.67l0.3,0.63c0.11,0.24,0.21,0.46,0.3,0.68l1.02-1.31h0.74l-1.49,1.79
		l0.89,1.75h-0.67l-0.35-0.72c-0.08-0.15-0.16-0.34-0.26-0.57l-1.05,1.29H237.3z"/>
	<path class="st8" d="M244.34,120.36v-1.34h-1.33v-0.56h1.33v-1.33h0.57v1.33h1.33v0.56h-1.33v1.34H244.34z"/>
	<path class="st8" d="M248.52,122.52l0.04-0.57c0.12,0.04,0.25,0.05,0.36,0.05c0.12,0,0.22-0.03,0.3-0.08
		c0.1-0.07,0.2-0.21,0.32-0.41l0.19-0.35l-0.59-3.55h0.59l0.27,1.79c0.05,0.35,0.1,0.71,0.14,1.06l1.58-2.85h0.63l-2.26,4.01
		c-0.22,0.39-0.41,0.65-0.58,0.78c-0.17,0.13-0.36,0.19-0.58,0.19C248.79,122.59,248.65,122.56,248.52,122.52z"/>
	<path class="st8" d="M257.45,118.27h-3.23v-0.56h3.23V118.27z M257.45,119.76h-3.23v-0.56h3.23V119.76z"/>
	<path class="st8" d="M260.01,118.74c0-0.58,0.06-1.04,0.18-1.4c0.12-0.35,0.3-0.62,0.53-0.82s0.53-0.29,0.89-0.29
		c0.26,0,0.49,0.05,0.69,0.16c0.2,0.11,0.36,0.26,0.49,0.46c0.13,0.2,0.23,0.44,0.3,0.73c0.07,0.29,0.11,0.67,0.11,1.16
		c0,0.57-0.06,1.04-0.18,1.39s-0.29,0.63-0.53,0.82c-0.24,0.19-0.53,0.29-0.89,0.29c-0.47,0-0.84-0.17-1.11-0.51
		C260.17,120.32,260.01,119.66,260.01,118.74z M260.63,118.74c0,0.8,0.09,1.34,0.28,1.6c0.19,0.27,0.42,0.4,0.7,0.4
		c0.28,0,0.51-0.13,0.7-0.4c0.19-0.27,0.28-0.8,0.28-1.6c0-0.81-0.09-1.34-0.28-1.6c-0.19-0.27-0.42-0.4-0.7-0.4
		c-0.28,0-0.5,0.12-0.66,0.35C260.73,117.38,260.63,117.93,260.63,118.74z"/>
</g>
<g>
	<g>
		<line class="st7" x1="179.5" y1="69.1" x2="296.54" y2="69.1"/>
		<g>
			<path class="st8" d="M295.2,69.1l-1.64-2.7l0.09-0.06l4.41,1.75c1.54,0.34,3.07,0.68,4.61,1.01c-1.54,0.34-3.07,0.68-4.61,1.01
				l-4.41,1.75l-0.09-0.05L295.2,69.1z"/>
		</g>
	</g>
</g>
<line class="st13" x1="241.27" y1="67.42" x2="241.27" y2="69.25"/>
<line class="st13" x1="282.44" y1="67.42" x2="282.44" y2="69.25"/>
<g>
</g>
<g>
</g>
<g>
</g>
<g>
</g>
<g>
</g>
<g>
</g>
<g>
</g>
</svg>
